<?xml version="1.0" encoding="utf-8"?>
<!-- Generator: Adobe Illustrator 24.1.1, SVG Export Plug-In . SVG Version: 6.00 Build 0)  -->
<svg version="1.1" id="Layer_1" xmlns="http://www.w3.org/2000/svg" xmlns:xlink="http://www.w3.org/1999/xlink" x="0px" y="0px"
	 viewBox="0 0 1080 1080" style="enable-background:new 0 0 1080 1080;" xml:space="preserve">
<style type="text/css">
	.st0{fill:#F4F4F4;}
	.st1{fill:#E5EFE9;}
	.st2{fill:#212D88;}
	.st3{fill:url(#SVGID_1_);}
	.st4{fill:url(#SVGID_2_);}
	.st5{fill:#B64995;}
	.st6{fill:#6D2585;}
	.st7{fill:url(#SVGID_3_);}
	.st8{fill:url(#SVGID_4_);}
	.st9{fill:#FCFFFE;}
	.st10{fill:none;}
	.st11{fill:#DAECFC;}
	.st12{fill:#243379;}
	.st13{fill:#F4CCB9;}
	.st14{fill:url(#SVGID_5_);}
</style>
<rect x="391" y="798" class="st0" width="304" height="112"/>
<rect x="391" y="797" class="st1" width="40" height="112"/>
<rect x="517" y="797" class="st1" width="40" height="112"/>
<path class="st2" d="M920.29,692H177.83c-17.78,0-32.33-14.55-32.33-32.33V209.96c0-28.85,23.61-52.46,52.46-52.46h685.08
	c28.85,0,52.46,23.61,52.46,52.46v466.83C935.5,685.19,928.69,692,920.29,692z"/>
<linearGradient id="SVGID_1_" gradientUnits="userSpaceOnUse" x1="175" y1="213.5" x2="909" y2="213.5">
	<stop  offset="0" style="stop-color:#B8D9F4"/>
	<stop  offset="0.9972" style="stop-color:#FFFFFF"/>
</linearGradient>
<path class="st3" d="M909,242v-32.35c0-13.62-11.04-24.65-24.65-24.65H199.65c-13.62,0-24.65,11.04-24.65,24.65V242H909z"/>
<linearGradient id="SVGID_2_" gradientUnits="userSpaceOnUse" x1="175" y1="470" x2="909" y2="470">
	<stop  offset="0" style="stop-color:#F9DED4"/>
	<stop  offset="0.9972" style="stop-color:#FFFFFF"/>
</linearGradient>
<rect x="175" y="268" class="st4" width="734" height="404"/>
<path class="st5" d="M921,692H172.24c-14.49,0-26.24-11.75-26.24-26.24V664h775c7.73,0,14,6.27,14,14v0
	C935,685.73,928.73,692,921,692z"/>
<path class="st6" d="M385,332H240c-6.6,0-12-5.4-12-12v-3c0-6.6,5.4-12,12-12h145c6.6,0,12,5.4,12,12v3C397,326.6,391.6,332,385,332
	z"/>
<linearGradient id="SVGID_3_" gradientUnits="userSpaceOnUse" x1="236" y1="384.5" x2="393" y2="384.5">
	<stop  offset="0" style="stop-color:#D89B39"/>
	<stop  offset="0.9944" style="stop-color:#F7D986"/>
</linearGradient>
<path class="st7" d="M381,399.02H248c-6.6,0-12-5.4-12-12v-5.03c0-6.6,5.4-12,12-12h133c6.6,0,12,5.4,12,12v5.03
	C393,393.62,387.6,399.02,381,399.02z"/>
<linearGradient id="SVGID_4_" gradientUnits="userSpaceOnUse" x1="236.5" y1="453.5" x2="378.5" y2="453.5">
	<stop  offset="0" style="stop-color:#D89B39"/>
	<stop  offset="0.9944" style="stop-color:#F7D986"/>
</linearGradient>
<path class="st8" d="M366.5,466.63h-118c-6.6,0-12-5.4-12-12v-2.26c0-6.6,5.4-12,12-12h118c6.6,0,12,5.4,12,12v2.26
	C378.5,461.23,373.1,466.63,366.5,466.63z"/>
<path class="st2" d="M718.1,869.4H367.9c-8.74,0-15.9-7.15-15.9-15.9l0,0c0-8.74,7.15-15.9,15.9-15.9H718.1
	c8.74,0,15.9,7.15,15.9,15.9l0,0C734,862.24,726.85,869.4,718.1,869.4z"/>
<path class="st2" d="M764.34,927H312.66c-6.96,0-12.66-5.7-12.66-12.66v-4.08c0-6.96,5.7-12.66,12.66-12.66h451.68
	c6.96,0,12.66,5.7,12.66,12.66v4.08C777,921.3,771.3,927,764.34,927z"/>
<path class="st2" d="M803.58,799H277.81c-8.14,0-14.81-6.66-14.81-14.81V467.55c0-12.95,10.6-23.55,23.55-23.55h509.9
	c12.95,0,23.55,10.6,23.55,23.55v315.03C820,791.61,812.61,799,803.58,799z"/>
<rect x="290" y="470" class="st9" width="501" height="299"/>
<circle class="st10" cx="241" cy="218" r="13"/>
<circle class="st10" cx="295" cy="218" r="13"/>
<circle class="st2" cx="241" cy="218" r="13"/>
<circle class="st2" cx="295" cy="218" r="13"/>
<circle class="st2" cx="349" cy="218" r="13"/>
<rect x="258" y="606" transform="matrix(-1.836970e-16 1 -1 -1.836970e-16 1027 212)" class="st11" width="299" height="27"/>
<circle class="st11" cx="477.5" cy="619.5" r="87.5"/>
<circle class="st12" cx="477" cy="619.5" r="55.5"/>
<circle class="st13" cx="477" cy="619.5" r="26"/>
<rect x="192.5" y="567.5" transform="matrix(-1.836970e-16 1 -1 -1.836970e-16 961.5 277.5)" class="st1" width="299" height="104"/>
<linearGradient id="SVGID_5_" gradientUnits="userSpaceOnUse" x1="600.6927" y1="554.7996" x2="904" y2="554.7996">
	<stop  offset="0" style="stop-color:#EF7B7B"/>
	<stop  offset="0.9881" style="stop-color:#FFDFD2"/>
</linearGradient>
<path class="st14" d="M638,610.19h129.65c2.82,0,5.11,2.29,5.11,5.11l0,0c0,2.82-2.29,5.11-5.11,5.11H638
	c-2.82,0-5.11-2.29-5.11-5.11l0,0C632.89,612.48,635.18,610.19,638,610.19z M638.01,567.32h129.63c2.83,0,5.12,2.29,5.12,5.12l0,0
	c0,2.83-2.29,5.12-5.12,5.12H638.01c-2.83,0-5.12-2.29-5.12-5.12l0,0C632.89,569.61,635.18,567.32,638.01,567.32z M638,524.44
	h129.65c2.82,0,5.11,2.29,5.11,5.11v0c0,2.82-2.29,5.11-5.11,5.11H638c-2.82,0-5.11-2.29-5.11-5.11v0
	C632.89,526.72,635.18,524.44,638,524.44z M638,481.54h129.65c2.82,0,5.11,2.29,5.11,5.11l0,0c0,2.82-2.29,5.11-5.11,5.11H638
	c-2.82,0-5.11-2.29-5.11-5.11l0,0C632.89,483.83,635.18,481.54,638,481.54z M702.75,438.66h64.9c2.82,0,5.11,2.29,5.11,5.11l0,0
	c0,2.82-2.29,5.11-5.11,5.11h-64.9c-2.82,0-5.11-2.29-5.11-5.11l0,0C697.64,440.95,699.93,438.66,702.75,438.66z M682.16,393.67V437
	c0,7.28-2.99,13.93-7.8,18.74l-0.03,0.02c-4.81,4.82-11.44,7.81-18.71,7.81h-54.93v185.5c0,4.48,1.85,8.58,4.81,11.53
	c2.97,2.95,7.05,4.81,11.53,4.81H788.6c4.49,0,8.58-1.85,11.53-4.81h0.02c2.95-2.95,4.8-7.03,4.8-11.53V410.03
	c0-4.5-1.84-8.58-4.82-11.53l0.02-0.04c-2.97-2.95-7.06-4.79-11.55-4.79H682.16z M671.94,437v-37.35l-62.57,53.69h46.26
	c4.46,0,8.58-1.84,11.51-4.8l0.02-0.02C670.11,445.59,671.94,441.52,671.94,437z M788.6,675.62h-95.29L797.8,714.9
	c4.19,1.56,8.68,1.28,12.51-0.46c3.81-1.73,6.97-4.91,8.54-9.11l84.13-223.75l0,0c1.57-4.19,1.28-8.7-0.47-12.51
	c-1.74-3.81-4.9-6.97-9.11-8.56l-78.23-29.41v217.96c0,7.3-2.99,13.92-7.81,18.76l0,0C802.57,672.63,795.93,675.62,788.6,675.62z"/>
</svg>
